<svg xmlns="http://www.w3.org/2000/svg" width="64" height="81.001" viewBox="0 0 64 81.001">
  <g id="Group_137" data-name="Group 137" transform="translate(-405 -60.805)">
    <path d="M18690-10248.2a31.783,31.783,0,0,1-12.455-2.515,31.87,31.87,0,0,1-10.17-6.857,31.847,31.847,0,0,1-6.857-10.171,31.812,31.812,0,0,1-2.516-12.455,31.818,31.818,0,0,1,2.516-12.457,31.877,31.877,0,0,1,6.857-10.173,31.87,31.87,0,0,1,10.17-6.857,31.783,31.783,0,0,1,12.455-2.515,31.785,31.785,0,0,1,12.457,2.515,31.889,31.889,0,0,1,10.172,6.857,31.877,31.877,0,0,1,6.857,10.173,31.818,31.818,0,0,1,2.516,12.457,32.139,32.139,0,0,1-1.057,8.188,31.861,31.861,0,0,1-2.99,7.4,31.894,31.894,0,0,0-6.322-8.967,31.776,31.776,0,0,0-10.582-7.027,31.846,31.846,0,0,0-12.037-2.344c-.75,0-1.5.026-2.232.077a31.9,31.9,0,0,0,1.861,13.212,31.81,31.81,0,0,0,7.438,11.639,31.9,31.9,0,0,0,8.719,6.2,32.1,32.1,0,0,0,7.514-5.439,32.147,32.147,0,0,0,5.643-7.35,32.1,32.1,0,0,1,2.977,15.882c-.748.052-1.5.077-2.232.077h-.006a32.133,32.133,0,0,1-13.895-3.17,31.853,31.853,0,0,1-7.057,2.677A32.178,32.178,0,0,1,18690-10248.2Z" transform="translate(-18253 10373)" fill="#747474"/>
    <text transform="translate(425 138.806)" fill="#606060" font-size="10" font-family="Rubik"><tspan x="0" y="0">Logo</tspan></text>
  </g>
</svg>

