<svg xmlns="http://www.w3.org/2000/svg" width="64" height="81.001"><g data-name="Group 137"><path d="M32 63.995a31.783 31.783 0 01-12.455-2.515 31.87 31.87 0 01-10.17-6.857 31.847 31.847 0 01-6.857-10.171A31.812 31.812 0 01.002 31.997 31.818 31.818 0 012.518 19.54 31.877 31.877 0 019.375 9.367a31.87 31.87 0 0110.17-6.857A31.783 31.783 0 0132-.005 31.785 31.785 0 0144.457 2.51a31.889 31.889 0 0110.172 6.857 31.877 31.877 0 016.857 10.173 31.818 31.818 0 012.516 12.457 32.139 32.139 0 01-1.057 8.188 31.861 31.861 0 01-2.99 7.4 31.894 31.894 0 00-6.322-8.967 31.776 31.776 0 00-10.582-7.027 31.846 31.846 0 00-12.037-2.344c-.75 0-1.5.026-2.232.077a31.9 31.9 0 001.861 13.212 31.81 31.81 0 007.438 11.639 31.9 31.9 0 008.719 6.2 32.1 32.1 0 007.514-5.439 32.147 32.147 0 005.643-7.35 32.1 32.1 0 012.977 15.882c-.748.052-1.5.077-2.232.077h-.006a32.133 32.133 0 01-13.895-3.17 31.853 31.853 0 01-7.057 2.677 32.178 32.178 0 01-7.744.943z" fill="#747474"/><text transform="translate(20 78.001)" fill="#606060" font-size="10" font-family="Rubik"><tspan x="0" y="0">Logo</tspan></text></g></svg>